<?xml version="1.0" encoding="UTF-8"?>
<svg style="max-width: 895.32px; max-height: 445.41px; width: 100%; height: auto;" id="Capa_1" data-name="Capa 1" xmlns="http://www.w3.org/2000/svg" version="1.1" viewBox="0 0 1190.9 357.2">
  <defs>
    <style>
      .cls-1 {
        fill: #1e1e1e;
      }

      .cls-1, .cls-2 {
        stroke-width: 0px;
      }

      .cls-2 {
        fill: #221e20;
      }
    </style>
  </defs>
  <g>
    <g>
      <g>
        <path class="cls-1" d="M939.4,136.5c0,3.3-2.6,6-5.9,6-3.2,0-5.8-2.7-5.8-6,0-3.3,2.6-6,5.8-6,3.2,0,5.8,2.7,5.8,6Z"/>
        <path class="cls-1" d="M439.3,176.2c-1-1.4-3-1.6-4.3-.6-.1,0-12.8,9.6-17.1,12-3,1.7-5.6,2.1-6.9,1.7-.2,0-.3-.1-.4-.2.3-2.5,3.4-9.5,7.3-17.4.6-1,1.1-2,1.5-3,0-.1,0-.2.1-.3,1.7-3.5,3.6-7,5.4-10.4.8-1.5.3-3.4-1.3-4.2-1.5-.8-3.4-.3-4.2,1.3,0,0-1,1.8-2.3,4.4-1.2-3.1-3.4-5.7-6.9-6.9-9.5-3.3-21.7,1.3-28.3,7.3-5.3,4.6-9,10.6-10.4,16.3-2.6,1.9-12.8,9.5-16.5,11.6-2.8,1.5-6.5,2.2-9,1.5,0,0,0,0,0,0,0,0,0,0,0,0,0,0,0,0,0,0,0,0,0,0,0,0-4.8-1.2-8.3-3.6-11.6-6.5,14.1-11,20.1-19.9,29.5-33.7,1-1.5,2-3,3.1-4.6,8.2-1.3,15.6-3.2,21.1-5.7,15.3-6.9,19.3-17.3,18.1-24.2-.9-5.2-4.7-8.9-9.6-9.3-7.4-.6-12.8,5.7-19.6,14.7-5.6,7.3-9.9,13.4-13.7,18.9-21.7,3-46.7,1.3-50.3-2.5-.5-.5-.7-.9-.7-.9.2-1.2,4.9-3.6,10-4.8,1.7-.4,2.7-2.1,2.3-3.7-.4-1.7-2-2.7-3.7-2.3-3,.7-12.9,3.4-14.5,9.1-.5,1.7-.5,4.3,2.2,7,5.6,5.7,28.8,7.2,50.1,4.9-9.2,13.5-15.1,22.2-29.1,32.9-1.5-1.3-3-2.6-4.6-3.8-12.1-8.6-22.9-7.3-28.5-3.6-4.9,3.3-7.1,8.8-5.8,14.5,1,4.5,4.1,8,8.4,9.6,1.9.7,3.9,1,6.1,1,6.6,0,14.7-3.2,23.3-9.3.2-.2.5-.3.7-.5,4,3.5,8.6,7,15.1,8.7,0,0,.1,0,.2,0,4.1,1,9.3.2,13.4-2.1,2.9-1.6,8.9-5.9,13.2-9.1,0,.1,0,.3,0,.4,1.4,5.9,4.7,8.6,7.1,9.8,1.8.9,3.8,1.3,6,1.3,2.4,0,4.9-.5,7.3-1.6,3.4-1.5,8.5-4.6,13.6-8.6-1.2,3.9-.9,5.3-.3,6.3.9,1.7,2.5,2.9,4.4,3.5.9.3,1.9.4,2.8.4,3.7,0,7.3-1.7,8.9-2.6,4.7-2.6,17.3-12.1,17.8-12.5,1.4-1,1.6-3,.6-4.3ZM381.8,123.7c6.2-8.1,10.1-12.3,13.8-12.3s.3,0,.4,0c2,.2,3.5,1.7,3.9,4.1.8,4.7-2.5,12.1-14.5,17.5-3.9,1.7-8.5,3.1-13.6,4.2,2.9-4.1,6.2-8.6,10-13.6ZM301.1,189.5c-3-1.1-4.1-3.5-4.5-5.2-.8-3.2.4-6.1,3.2-8,1.7-1.1,4.1-1.9,7-1.9s9,1.4,14.4,5.3c1,.8,2.1,1.6,3.1,2.5-9.5,6.6-17.9,9.3-23.2,7.3ZM389,188.4c-3,1.3-5.9,1.5-8,.4-1.9-.9-3.2-2.9-3.9-5.7-1.2-5.2,2.5-13.1,8.8-18.6,4.1-3.7,11.1-6.8,17.3-6.8s3.4.2,4.9.8c4.5,1.6,4.3,8.4,4,10.7-5.3,8.4-17.1,16.6-23.1,19.2Z"/>
        <path class="cls-1" d="M1067.8,176.2c-1-1.4-3-1.6-4.3-.6-.1,0-12.8,9.6-17.1,12-3,1.7-5.6,2.1-6.9,1.7-.2,0-.3-.1-.4-.2.3-2.5,3.4-9.5,7.3-17.4.6-1,1.1-2,1.5-3,0-.1,0-.2.1-.3,1.7-3.5,3.6-7,5.4-10.4.8-1.5.3-3.4-1.3-4.2-1.5-.8-3.4-.2-4.2,1.3,0,0-1,1.8-2.3,4.4-1.2-3.1-3.4-5.7-6.9-6.9-9.5-3.3-21.7,1.3-28.3,7.3-6.8,5.9-11,14-11.1,20.9-11,6.9-19.3,9.5-21.2,8.7-.9-.4-1-.8-1.1-.9-.3-.8.2-2.2.4-2.7.5-.9,6.2-10.7,8.2-14.2.3-.5.5-.9.8-1.4,2.1-3.5,4.5-7.5,3.6-11.9-.9-4.2-4.4-6.1-10.5-5.7-6.8.5-14.9,5.3-24.2,14.2l6.2-11.1s0,0,0,0l.6-1.1c.8-1.5.2-3.3-1.3-4.1-1.5-.8-3.3-.3-4.2,1.1-5.7,9.7-23.4,35.3-36.1,37.7-4.1.7-7,.5-7.7-.7-1.6-2.4,1.7-9.7,5-14.9,5.5-8,10.6-18.7,10.9-19.3.7-1.5,0-3.4-1.5-4.1-1.5-.7-3.4,0-4.1,1.5,0,.1-4.5,9.3-9.2,16.6,0,0,0,0,0,0-.3.4-.8,1.2-1.5,2.2-1.1,1.6-2.3,3.1-3.3,4.3-5.1,5.6-18.2,16.5-26.1,14.8-.7-.1-.8-.4-.9-.6-1.1-2.6,1.7-10.2,5.2-16.3,4.6-6.8,8.2-14.4,8.4-14.8.7-1.5,0-3.4-1.5-4.1-1.6-.7-3.4,0-4.1,1.5,0,0-3,6.2-6.8,12.2-.2.2-.4.4-.5.6-.2.3-.5.8-.8,1.4-1.4,2-2.8,3.9-4.2,5.4-5.1,5.6-18.2,16.5-26.1,14.8-.7-.1-.8-.4-.9-.6-1.2-2.8,2.2-11.4,6-17.8,0,0,0,0,0-.1l7.2-13.1c.7-1.3.4-3-.8-3.9-1.2-.9-2.9-.9-4,.1-14.4,13-32.3,31.7-45.4,45.8l15.5-27.8c1-1.7,1.8-3.2,2.4-4.4.8-1.5.1-3.4-1.4-4.1-1.5-.8-3.4-.1-4.1,1.4-.1.3-.3.6-.4.9l-1.6,2.9c-2.5,4.3-6.9,10.3-13.5,15.1-5.9,4.3-10.8,6.2-14.3,5.7-2.3-.4-4.3-1.8-6.4-4.7-1.1-1.5-1.6-5.2-.2-9.5,1.3-3.9,5.3-10.9,16.4-14.1,17.5-5,28.1,1.1,28.6,1.4,1.5.9,3.4.4,4.3-1.1.9-1.5.4-3.4-1-4.3-.5-.3-13.2-7.8-33.5-2-10.1,2.9-17.6,9.5-20.6,18-.6,1.6-.9,3.3-1.1,4.9-5.4,6-18.4,12.8-22,11.4-.4-.1-.5-.3-.5-.3h0c-.5-1.3,2.8-6.6,4.4-9.2.7-1,1.3-2.1,1.9-3.1,4.7-7.9,5.6-10.6,2.4-17.1-.7-1.4-1.6-2.7-2.4-4,0-.1-.1-.2-.2-.3,1.8-1.8,3.4-3.7,4.5-5.8,3.3-6.1,2.1-9.7,1.2-11.3-1.1-1.8-3.1-2.9-5.3-2.8-3.1.1-6.1,2.3-8,5.8-2.6,5-1.9,9.2-.3,12.7-4.2,3.1-9.1,5.6-12.7,7.4-1.6.8-2.9,1.5-4,2.1,0,0-.2,0-.2.1-.1-1.6-.6-3.2-1.2-4.5-3-6-8.4-9.6-14.4-9.7h-.1c-4.5,0-8.5,2.1-10.2,5.4,0,.1-.1.3-.2.4-2.3.8-4.6,1.9-6.9,3.4-6.9,4.5-11.6,12.8-12.2,20.2-10.2,7.3-21,11.5-23.3,10.8-2-2.4-2.1-6.3-2.1-6.4,0-.9,0-1.7,0-2.6,1.1-.8,1.9-1.5,2.5-2,2.7-1.9,30-21.9,44-54.1.4-.9,1.9-4.3.6-7.2-.7-1.5-2-2.6-3.7-3-3-.7-6.8.7-10.7,4.1-.4.3-34.4,30.5-38.5,58.8-3,2.1-7.2,4.7-11.4,7-10.1,5.4-14.3,5.7-15.1,5.3-2.1-2.4-2.2-6.4-2.2-6.4,0-.7,0-1.4,0-2.2.5-.4.9-.6.9-.7.4-.3.7-.7.9-1.1.2-.2.5-.4.6-.6,2.8-2,30.1-22,44-54.1.4-.9,1.9-4.3.6-7.2-.7-1.5-2-2.6-3.7-3-3-.7-6.8.7-10.7,4.1-.4.3-34.8,30.9-38.6,59.4,0,0-.2.2-.3.2-4.1,3-10.8,7.9-13.7,9.5-3,1.7-5.6,2.1-6.9,1.7-.2,0-.3-.1-.4-.2.3-2.5,3.4-9.5,7.3-17.4.6-1,1.1-2,1.5-3,0-.1,0-.2.1-.3,1.7-3.5,3.6-7,5.4-10.4.8-1.5.3-3.4-1.3-4.2-1.5-.8-3.4-.3-4.2,1.3,0,0-1,1.8-2.3,4.4-1.2-3.1-3.4-5.7-6.9-6.9-9.5-3.3-21.7,1.3-28.3,7.3-5.4,4.7-9.2,10.9-10.5,16.6-3.1,2.3-12.5,9.3-16.1,11.3-2.7,1.5-6.4,2.1-8.9,1.5-.2,0-.5-.2-.6-.4-.3-.7.3-2.4,1-3.6,0,0,0,0,0,0,.2-.3,16.5-27.3,20.9-34.8.5-.8,2.6-4.9,1.5-9-.6-2.1-2-3.8-4.1-4.9-5-2.6-11-.1-16.8,4.3,1.9-5.5,1.9-9.8,0-12.9-2.2-3.4-6.1-4.2-8.1-4.1-4.1.1-8.6,1.9-13.1,4.6,3.7-12,5.8-20.9,6-21.9.4-1.7-.7-3.3-2.3-3.7-1.7-.4-3.3.7-3.7,2.3,0,.3-3.1,13.6-8.6,29.7-3.9,3.4-7.7,7.1-10.9,10.6-9.9,10.8-19.3,23.9-22.7,32-4.4,10.3-5,15.5-2.3,17.9.5.4,1.5,1.1,2.9,1.1s2-.3,3.3-1c15.6-9,27.5-35.2,35-56.9,6.1-5,11.9-8.3,16.5-8.5,0,0,2,0,2.8,1.3.5.9,1.4,3.7-2.1,11-2,3.2-27.1,43.9-30.1,48.9-.9,1.5-.4,3.4,1.1,4.3,1.5.9,3.4.4,4.3-1.1,1.5-2.5,9.1-14.8,16.2-26.4,0,0,0,0,0,0,8.4-12.4,23.7-29.2,29.7-26,.7.4.9.8,1,1.2.4,1.2-.3,3.2-.9,4.2-4.3,7.5-20.6,34.4-20.8,34.7h0c-.3.5-.5.9-.7,1.3-.5,1-.8,2.1-1,3.1-.9,4.2,1,7.5,4.8,8.7.1,0,.2,0,.3,0,1.1.3,2.4.4,3.7.4,3.3,0,6.8-.9,9.8-2.5,2.8-1.6,8.7-5.7,12.9-8.8,0,0,0,.1,0,.2,1.4,5.9,4.7,8.6,7.1,9.8,1.8.9,3.8,1.3,6,1.3,2.4,0,4.9-.5,7.3-1.6,3.4-1.5,8.5-4.6,13.6-8.6-1.2,3.9-.9,5.3-.3,6.3.9,1.7,2.5,2.9,4.4,3.5.9.3,1.9.4,2.8.4,3.7,0,7.3-1.7,8.9-2.6,2.4-1.3,6.9-4.5,10.8-7.3.3,2.2,1.2,5.6,3.6,8.3,1.2,1.3,2.8,2,4.9,2.1.1,0,.3,0,.4,0,6.4,0,17.5-5.9,25.5-11,.2,2.1,1,6,3.7,9,1.2,1.4,3,2,5.2,2,7.1,0,18-6.4,23.5-10.1,1.3,3.4,4.5,7.9,12.6,8.9,9.5,1.2,19.2-3.8,25.9-13.3,2.5-3.6,4.3-7.3,5.2-10.8,1.4-.5,2.8-1,4-1.8.9-.5,2.2-1.2,3.7-1.9,3.8-1.9,8.6-4.4,13-7.5.7,1.1,1.4,2.1,1.9,3.1,1.9,3.8,2,4.1-2.1,11.1-.6,1-1.2,2-1.9,3-3.3,5.3-6.4,10.2-5.1,14.4.4,1.3,1.5,3.1,4.1,4.1,1,.4,2.2.6,3.4.6,6.6,0,15.8-5.3,21.6-10.1.4.9.8,1.8,1.3,2.6,1.9,2.7,5.1,6.3,10.4,7.2.7.1,1.5.2,2.2.2,4.2,0,9-1.8,14.4-5.4l-17.4,31.2h0c-.8,1.5-.3,3.4,1.2,4.2.5.3,1,.4,1.5.4,1.1,0,2.1-.6,2.7-1.6l.7-1.2c2.6-2.9,26.3-29.4,48.3-51.1-2.7,5.3-6.2,13.9-4,19,.9,2.2,2.8,3.7,5.2,4.2,8.6,1.9,19-5.1,25.5-10.6-.3,2.3-.3,4.6.5,6.4.9,2.2,2.8,3.7,5.2,4.2,1,.2,2,.3,3,.3,7.5,0,15.8-5.4,21.5-10.1-.2,2.3.1,4.4,1.3,6.1,2.3,3.6,7,4.8,14.1,3.5,5.2-1,10.7-4.6,15.9-9.3l-2.9,5.2h0c-.3.6-.3.8-.4,1.1-.2,1.4.6,2.8,1.9,3.3.4.1.8.2,1.1.2,1,0,2-.5,2.6-1.3,0,0,0,0,0,0,6.6-9.6,26.7-34.6,40.1-35.7,3.2-.3,3.8.2,3.9.7.4,2-1.2,4.8-2.9,7.5-.3.5-.6,1-.9,1.4-2.2,3.7-8.3,14.3-8.3,14.3,0,0,0,0,0,0-.2.4-2.1,4.1-.8,7.7.5,1.4,1.7,3.4,4.5,4.6,5.9,2.5,17.9-3.8,24.9-7.9,1.6,4,4.2,6,6.3,7.1,1.8.9,3.8,1.3,6,1.3s4.9-.5,7.3-1.6c3.4-1.5,8.5-4.6,13.6-8.6-1.2,3.9-.9,5.3-.3,6.3.9,1.7,2.5,2.9,4.4,3.5.9.3,1.9.4,2.8.4,3.7,0,7.3-1.7,8.8-2.6,4.7-2.6,17.3-12.1,17.8-12.5,1.4-1,1.6-3,.6-4.3ZM708,123.4c2.2-1.9,3.8-2.6,4.7-2.7,0,.5-.3,1-.5,1.4,0,0,0,.1,0,.2-10.9,25.2-31.1,43.1-38.9,49.3,6.7-20.8,28.2-42.6,34.8-48.2ZM486.1,189c.4-1.7,1.2-4.6,3.2-9.2,3.1-7.2,12.5-20.6,23-31.6-6.7,16.7-15.6,33.6-26.2,40.8ZM588,188.4c-3,1.3-5.9,1.5-8,.4-1.9-.9-3.2-2.9-3.9-5.7-.3-1.1-.3-2.4-.1-3.8.1-.4.2-.8.2-1.2,1-4.5,4.2-9.8,8.7-13.7,4.1-3.7,11.1-6.8,17.3-6.8s3.4.2,4.9.8c4.5,1.6,4.3,8.4,4,10.7-5.3,8.4-17.1,16.6-23.1,19.2ZM673.5,123.2c2.2-1.9,3.8-2.6,4.7-2.7,0,.5-.3,1-.5,1.5,0,0,0,.1,0,.2-10.9,25.2-31.1,43.1-38.9,49.3,6.7-20.7,28.2-42.6,34.8-48.2ZM730.9,178.1c-5.4,7.6-12.9,11.6-20.1,10.7-4.4-.5-7-2.5-7.8-5.8-1.4-5.9,3-14.7,9.3-18.9.9-.6,1.8-1.1,2.8-1.6.5,1.6,1.4,3.2,2.9,4.5,3.7,3.6,10.1,5.3,16.3,5.1-.8,2-1.9,4-3.3,6ZM722.2,162.5c-1-.9-1.4-1.9-1.3-3,.2-.4.4-.9.4-1.4,0,0,0-.2.1-.3.5-1,2.3-2,4.7-2,1.7,0,6.1.6,8.9,6.2.5,1,.7,2.2.6,3.6-5.3.6-10.9-.7-13.5-3.2ZM763.7,149.8c-.4-1.7-.2-3.4.8-5.3,1-1.9,2.1-2.5,2.6-2.5.1.5.2,2.1-1.4,5-.5,1-1.2,2-2,2.9ZM1017.5,188.4c-3,1.3-5.9,1.5-8,.4-1.9-.9-3.2-2.9-3.9-5.7-1.2-5.2,2.5-13.1,8.8-18.6,4.1-3.7,11.1-6.8,17.3-6.8s3.4.2,4.9.8c4.5,1.6,4.3,8.4,4,10.7-5.3,8.4-17.1,16.6-23.1,19.2Z"/>
      </g>
      <g>
        <path class="cls-1" d="M585.6,236.6v17.8h-2.5v-15.6h-4v-2.2h6.5Z"/>
        <path class="cls-1" d="M605.2,246.7c.5.7.8,1.6.8,2.6s-.3,2-.9,2.8c-.6.8-1.4,1.4-2.5,1.8-1.1.4-2.3.6-3.8.6s-2.7-.2-3.7-.6c-1.1-.4-1.9-1-2.5-1.8-.6-.8-.9-1.7-.9-2.8s.3-1.9.8-2.6c.5-.7,1.3-1.3,2.3-1.7-.8-.4-1.4-.9-1.9-1.6-.4-.6-.6-1.4-.6-2.3s.3-1.8.8-2.6c.5-.7,1.3-1.3,2.2-1.7,1-.4,2.1-.6,3.4-.6s2.4.2,3.4.6c1,.4,1.7.9,2.3,1.7.5.7.8,1.6.8,2.6s-.2,1.6-.6,2.3c-.4.7-1.1,1.2-1.9,1.6,1,.4,1.8.9,2.3,1.7ZM602.3,251.6c.8-.6,1.2-1.4,1.2-2.4s-.4-1.8-1.2-2.3c-.8-.6-1.9-.9-3.3-.9s-2.5.3-3.3.9c-.8.6-1.2,1.3-1.2,2.3s.4,1.8,1.2,2.4c.8.6,1.9.9,3.3.9s2.5-.3,3.3-.9ZM596.1,239.2c-.7.5-1,1.2-1,2.1s.3,1.6,1,2.1c.7.5,1.6.8,2.9.8s2.2-.3,2.9-.8c.7-.5,1.1-1.2,1.1-2.1s-.4-1.6-1.1-2.1c-.7-.5-1.7-.8-2.9-.8s-2.2.3-2.8.8Z"/>
        <path class="cls-1" d="M622.2,238.7c1.3,1.5,1.9,3.7,1.9,6.6s-.4,3.7-1.1,5.1c-.7,1.4-1.7,2.5-2.9,3.2-1.3.7-2.7,1.1-4.4,1.1s-1.7,0-2.4-.3-1.4-.4-2-.8l1-2c.9.6,2,.8,3.4.8s3.3-.6,4.3-1.7,1.6-2.8,1.6-5v-.6c-.5.8-1.2,1.3-2.1,1.7-.9.4-1.9.6-3,.6s-2.2-.2-3.1-.7c-.9-.4-1.6-1.1-2.2-1.9-.5-.8-.8-1.8-.8-2.8s.3-2.1.8-2.9c.5-.8,1.3-1.5,2.2-2,.9-.5,2-.7,3.2-.7,2.4,0,4.2.8,5.5,2.3ZM619.1,244.8c.6-.3,1.1-.7,1.5-1.2.3-.5.5-1.1.5-1.8s-.2-1.2-.5-1.7c-.3-.5-.8-.9-1.4-1.2-.6-.3-1.4-.5-2.3-.5s-2.1.3-2.8.9c-.7.6-1.1,1.5-1.1,2.5s.4,1.9,1.1,2.5c.7.6,1.7.9,2.9.9s1.5-.2,2.1-.5Z"/>
        <path class="cls-1" d="M640.1,247.8v-11.2h-2.7l-9.1,11.6v1.8h9.4v4.4h2.5v-4.4h3.4v-2.2h-3.4ZM631.4,247.8l6.3-8.2v8.2h-6.3Z"/>
        <path class="cls-1" d="M676,254.3v-13s-6.5,10.8-6.5,10.8h-1.2l-6.4-10.7v12.9h-2.4v-17.8h2.1l7.4,12.5,7.3-12.5h2.1v17.8s-2.4,0-2.4,0Z"/>
        <path class="cls-1" d="M697.6,249.9h-9.5l-2,4.4h-2.6l8.1-17.8h2.5l8.1,17.8h-2.7l-2-4.4ZM696.8,247.9l-3.8-8.7-3.8,8.7h7.7Z"/>
        <path class="cls-1" d="M707.4,236.6h7.5c1.9,0,3.5.4,5,1.1,1.5.7,2.6,1.8,3.4,3.1.8,1.3,1.2,2.9,1.2,4.6s-.4,3.3-1.2,4.6c-.8,1.3-1.9,2.4-3.4,3.1-1.5.7-3.1,1.1-5,1.1h-7.5v-17.8ZM714.8,252.1c1.4,0,2.7-.3,3.8-.8,1.1-.6,1.9-1.3,2.5-2.3.6-1,.9-2.2.9-3.5s-.3-2.5-.9-3.5c-.6-1-1.4-1.8-2.5-2.3-1.1-.6-2.4-.8-3.8-.8h-4.8v13.4h4.8Z"/>
        <path class="cls-1" d="M742.9,254.3l-3.8-5.5c-.5,0-.8,0-1.1,0h-4.4v5.4h-2.5v-17.8h6.9c2.3,0,4.1.6,5.4,1.7,1.3,1.1,2,2.6,2,4.5s-.3,2.5-1,3.5c-.7,1-1.6,1.7-2.9,2.1l4.2,6h-2.8ZM741.5,245.7c.8-.7,1.3-1.7,1.3-3s-.4-2.3-1.3-3c-.8-.7-2.1-1-3.7-1h-4.3v8h4.3c1.6,0,2.8-.3,3.7-1Z"/>
        <path class="cls-1" d="M752,236.6h2.5v17.8h-2.5v-17.8Z"/>
        <path class="cls-1" d="M762.4,236.6h7.5c1.9,0,3.5.4,5,1.1,1.5.7,2.6,1.8,3.4,3.1.8,1.3,1.2,2.9,1.2,4.6s-.4,3.3-1.2,4.6c-.8,1.3-1.9,2.4-3.4,3.1-1.5.7-3.1,1.1-5,1.1h-7.5v-17.8ZM769.7,252.1c1.4,0,2.7-.3,3.8-.8,1.1-.6,1.9-1.3,2.5-2.3.6-1,.9-2.2.9-3.5s-.3-2.5-.9-3.5c-.6-1-1.4-1.8-2.5-2.3-1.1-.6-2.4-.8-3.8-.8h-4.8v13.4h4.8Z"/>
      </g>
    </g>
    <g>
      <path class="cls-2" d="M1095.4,132.1c-.7-1.6-1.7-3-2.9-4.3-1.2-1.2-2.7-2.2-4.3-2.9-1.7-.7-3.4-1-5.3-1s-3.6.4-5.3,1c-1.6.7-3.1,1.6-4.3,2.9-1.2,1.2-2.2,2.7-2.9,4.3-.7,1.7-1.1,3.4-1.1,5.2s.4,3.6,1.1,5.2c.7,1.6,1.7,3,2.9,4.3,1.2,1.2,2.7,2.2,4.3,2.9,1.7.7,3.4,1,5.3,1s3.6-.4,5.3-1c1.6-.7,3.1-1.6,4.3-2.9,1.2-1.2,2.2-2.7,2.9-4.3.7-1.7,1.1-3.4,1.1-5.2s-.4-3.6-1.1-5.2ZM1082.9,148c-6,0-10.8-4.8-10.8-10.6s4.8-10.6,10.8-10.6,10.8,4.8,10.8,10.6-4.8,10.6-10.8,10.6Z"/>
      <path class="cls-2" d="M1088.1,139.6c-.4-.9-1-1.6-1.7-2.1,1.6-.8,2.4-2.1,2.4-3.8s-.6-2.5-1.9-3.3c-1.2-.8-2.8-1.2-4.8-1.2s-2.9.1-4.5.4h-.2v15.3h2.7v-6.5h2.5c1,0,1.9.5,2.5,1.5.7,1.1,1.2,2.7,1.5,4.8v.2h2.8v-.3c-.4-2.3-.9-4-1.3-5ZM1082.5,136.2h-2.4v-4.7c.6,0,1.2,0,2,0,2.7,0,4,.8,4,2.3s-1.2,2.4-3.7,2.4Z"/>
    </g>
  </g>
  <g>
    <path class="cls-1" d="M188.8,150c0,0,.1,0,.2,0,2.9,1.2,7.1,2.6,12.7,2.7.1,0,.3,0,.3.2,1.6,1.8,11.6,18.7-7.6,39.3-.3.4,0,.8.4.8s.2,0,.3-.1c3-2.6,6.6-6.3,10-11.2,0-.1.2-.2.4-.2s.3,0,.3.1c3.2,3.3,23.6,25,24.5,70.8,0,.1,0,.3-.2.4-.9.9-6.2,5.2-22.4,6.6,0,0,0,0,0,0,0-2.2,0-3.1,0-5.2-.2-4.2-.7-8.4-1.5-12.5-.8-4-1.8-7.9-3.2-11.7-1.2-3.4-3.5-7.9-5.3-11.1-.1-.2-.3-.2-.4-.2-.4,0-.7.4-.5.8.2.4.4.7.6,1.1,1.8,3.2,3.2,6.5,4.3,10,1.3,3.8,2.2,7.8,3,11.7.7,4,1.2,8.1,1.3,12.3,0,2.1,0,4.2,0,6.3,0,0,0,0,0,0-.8,0-1.5,0-2.3.1,0,0-1.6.1-4.3.1-11.6,0-44.1-1.8-67.2-21,0,0-.1-.2-.2-.3h0c.9-2.7,1.9-5.3,3-7.8,1.6-3.7,3.5-7.3,5.6-10.7,1.9-3.1,4.1-6,6.5-8.7.3-.3.6-.6.9-.9.4-.4,0-.9-.4-.9s-.2,0-.4.2c-2.6,2.6-5.8,6.4-7.8,9.5-2.2,3.4-4.1,7-5.8,10.6-.7,1.6-1.4,3.1-2,4.7,0,0,0,0,0,0-4.5-2.2-18-9.3-26.8-21,0,0,0-.2,0-.3.3-.5.5-1,.8-1.5.2-.4.5-.8.8-1.2,0,0,0-.1,0-.2.4-.7.8-1.3,1.3-1.9,2.2-3.2,4.8-6.2,7.5-9,2.9-2.9,6-5.6,9.3-8.1,3.2-2.4,6.6-4.6,10.2-6.6,3.2-1.7,6.5-3.3,9.9-4.4.4-.1.8-.3,1.2-.4.6-.2.4-1-.1-1s-.1,0-.2,0c-3.5,1-8.2,2.8-11.4,4.5-3.6,1.9-7,4-10.3,6.4-3.4,2.5-6.6,5.2-9.6,8.1-2.9,2.8-5.6,5.8-7.9,9.1-.3.4-.6.9-.9,1.3,0,0,0,0,0,0s0,0,0,0c-2.2-3.4-6.7-11.8-9.5-25,0-.2,0-.3.1-.4,1.9-1.9,18.9-17.9,57.8-27.6h0c5.7,9.6,12.3,14.3,14.9,16.2.3.2.7.5,1,.7,0,0,.2,0,.2,0,.2,0,.4-.1.5-.3.2-.3,0-.6-.2-.7-2.6-1.8-5-4-7.1-6.4-2.1-2.3-3.9-4.9-5.4-7.6-.7-1.3-1.4-2.6-2.1-3.9,0,0,.1-.1.3-.2,2.6-.7,14.1-3.7,29.7-3.7.8,0,1.5,0,2.3,0h0c.2,0,.3,0,.4-.2.1-.2.2-.3.3-.5,0-.1.2-.2.4-.2M188.8,148.2h0c-.7,0-1.4.3-1.8.9-.6,0-1.1,0-1.7,0-15.6,0-27.1,2.9-30.2,3.8-.5.1-.9.4-1.2.8-.3.3-.4.7-.4,1.2,0,0,0,0,0,0-.1,0-.3,0-.4,0-16.5,4.1-31,9.8-43.2,16.9-9.4,5.5-14.2,9.9-15.4,11.2-.5.5-.8,1.3-.6,2.1,2.8,13.3,7.3,21.8,9.8,25.6.2.3.5.5.8.7-.2.3-.4.6-.5.8,0,0,0,0,0,0-.3.5-.6,1-.9,1.6-.1.3-.2.6-.2.9,0,.5.2.9.4,1.3,8.9,11.8,22.2,19,27.5,21.6,0,0,0,0,0,0-.2.6-.4,1.2-.6,1.9-.1.3-.1.7,0,1,.1.5.4.9.7,1.2,23.2,19.3,55.5,21.4,68.3,21.4s4.4-.1,4.4-.1c.8,0,1.6,0,2.3-.1.8,0,1.5-.7,1.6-1.4,0,0,.1,0,.2,0s0,0,.1,0c16.4-1.4,22.2-5.8,23.5-7.1.4-.4.7-1,.7-1.7-.4-19.6-4.3-37.1-11.5-52.1-3.8-7.9-8.5-14.8-13.4-19.9-.4-.4-1-.7-1.6-.7s-.4,0-.6,0c1.9-4.3,3.1-9.1,2.9-14.4-.3-7-3.2-12.3-4.5-13.7-.4-.4-1-.7-1.6-.7-5.6,0-9.5-1.5-12-2.5-.3-.1-.6-.2-.9-.2h0Z"/>
    <path class="cls-1" d="M216.7,140.6c1,0,1.8.7,2.2,1.7.9,1.9,1.4.5,2.9,3.6,1.5,3-2.8,4.2-2.9,4.2,0,0,0,0,0,0,.4,0,.7,0,.9,0,3.1,0,2,2.8,1.5,3.3-.5.6-.8,1.6-.5,2.5.3.9,0,1.8,0,1.8,0,0,0,0,0,0,8.1,1.8,16.7,5.6,15.2,13.8-1.6,8.6-9,15.9-9,15.9h0l-.6-.4s0,0,0,0c0,0,2.8-4.3,3.6-5.7,4.4-7.3,6.1-15.3-3.3-19.2-7.1-2.9-12.8-3.8-12.9-3.8,0,0,0,0,0,0,0,0,.8,1,.4,7.2-.4,6.2,8,9,8,9,0,0,0,0,0,0l-.4.4s0,0,0,0c-5.5,0-10.1-4.6-10.1-8.7,0-4.1.2-7.5-2.5-11.1-2.7-3.6-1.4-5.8-1.4-5.8s1.4-1.7,4.8-5.8c1.7-2.1,3.1-2.8,4.1-2.8M210.6,150.1h0c3.2-.4,8.2-2.9,8.2-2.9,0,0,0,0,0,0,0-.7-.8-2.3-1.7-2.8,0,0,0,0-.1,0-1.2,0-6.3,5.7-6.3,5.7,0,0,0,0,0,0M218.1,155.5s0,0,0,0c.6-2.2.4-3,.4-3h0c-.6,0-1.1-.1-1.7-.1-2.9,0-5.2.9-5.2.9,0,0,0,0,0,0,2.5,1.8,6.5,2.2,6.5,2.2M216.7,138.8c-1.8,0-3.6,1.1-5.5,3.4-3.5,4.2-4.8,5.9-4.8,5.9-.6.8-1.6,3.8,1.4,7.9,2.3,3,2.2,5.8,2.2,9.7v.4c0,2.3,1,4.7,3,6.7,2.4,2.4,5.6,3.8,8.8,3.8s.9-.2,1.2-.5l.4-.4c.4-.4.6-1,.5-1.6-.1-.6-.6-1.1-1.1-1.3,0,0-7.1-2.5-6.8-7.2.1-2,.1-3.7,0-5.1,2.3.5,5.9,1.5,10,3.2,2.9,1.2,4.7,2.8,5.4,5,1,2.9,0,6.8-2.9,11.7-.8,1.3-3.1,4.9-3.6,5.7-.3.4-.3.9-.2,1.3,0,.5.4.9.8,1.1l.6.4c.3.2.6.3.9.3s.9-.2,1.2-.5c0,0,7.8-7.6,9.5-16.8,1-5.1-.9-11.9-14.9-15.5,0-.3,0-.7-.2-1.1-.1-.3,0-.7,0-.8.7-.8,1.4-2.7.7-4.3,0-.2-.2-.5-.4-.7.2-.3.4-.6.6-.9.3-.8.6-2-.2-3.5-1-2-1.7-2.5-2.4-3-.2-.1-.2-.2-.4-.5-.8-1.7-2.2-2.7-3.8-2.7h0Z"/>
    <path class="cls-1" d="M197.5,96.3c1.3,0,3.1.9,3.6,1.2.5.4,3.3,1.7,3.2,5.5,0,.2,0,.4,0,.5,0,.3.2.5.5.5s.2,0,.2,0c0,0,.1,0,.2,0,0,0,.2,0,.3.1.8.5,1.1,2,.5,3-.1.2,0,.4,0,.6,1.8,2.1.2,4.9-.5,6.2.3-.2.5-.4.6-.6.7-.6,1.2-.8,1.7-.8.6,0,1,.3,1.2.6,1.9,2.1,1.4,4.9,1.1,6.9-.2,1.4-1.3,2.3-2,2.6-.2.1-.3.5-.2.7.7,1.3,2.5,5.2,1.6,9-1.4,6.1-3.1,8.3-4.4,10.8-1.2,2.4-2.6,4.6-3.2,7.3,0,.2-.3.4-.5.4h0c-1.7,0-8.1-.4-14.7-4.2,0,0,0,0,0,0-1-.5-2.7-1.5-4.1-2.4-6.3-4.1-6.3-5.4-8.9-7.7-2.7-2.3-4.3-3-6-4.3-.4-.3-.9-.6-1.4-.8-1.2-.5-3.5-1.5-5.1-1.6-.2,0-.4-.1-.4-.3,0-.2-.3-.4-.5-.4-.7,0-2.2,0-3.5,0s-2.6,0-3.1,0c0,0-.2,0-.3,0-1.9,0-3.2-.6-3.9-1.2-.4-.3-.2-.9.3-.9h1c.2,0,.4-.2.5-.4.2-.8.9-2.5,2.3-2.6.6,0,1.2,0,1.7,0s.8,0,1.1,0c0,0,0,0,0,0,.2,0,.4-.2.5-.4.2-.7.7-1.9,2.3-1.9h12.4c1.6,0,2.2,1.2,2.3,1.9,0,.2.3.4.5.4s0,0,0,0c.3,0,.7,0,1.1,0s1,0,1.7,0c1.4.1,2.1,1.8,2.3,2.6,0,.2.3.4.5.4h1.1c.5,0,.7.6.3.9-.6.5-1.7,1.1-3.4,1.2,0,0,0,0,0,0-.3,0-7.8,0-11,0-.3,0-.6.1,0,.3.6.2,1.1.4,1.4.7,0,0,1.6,1,2.6,1h0c.3,0,.5,0,.8,0,1,.2,2.9,1,3.3,2.6.2.8,1.6,1.5,1.8,1.7,1.8,1.3,6.2,3.4,9,4.7,1.5.7,2.9,1.5,4.2,2.5.2.1.3.2.5.2.4,0,.5-.4.1-.7-1.3-.8-2.1-2.3-2.2-2.5,0,0,0,0,0,0-.7-1.9-.3-3.3.4-4.4.1-.2.1-.4,0-.6-.6-1-.6-1.8-.2-3.1.4-1.7,4.5-5.8,6.5-8.3.8-1,2.4-2.6,4.1-4.2.7-.7,1.3-1.5,1.8-2.3,0-.2,0-.2,0-.2s0,0-.2.1c-1.1,1.3-3.1,2.7-4.2,2.7s-.2,0-.2,0c-1.3-.3-1.9-.9-3.3-2-1.4-1.1-2.6-3.1-3-4.4-.3-1-.6-2.1-.8-2.6,0-.2-.2-.3-.3-.3-2-.7-3-3.8-2.5-6.3.5-2.7,3.3-5.3,4.3-6.2.9-.7,2.3-.9,3-.9.1,0,.2,0,.3,0,.1,0,.2,0,.3,0,.4,0,.7-.1,2-.5.2,0,.4,0,.6,0M197.5,94.5h0c-.4,0-.8,0-1.2.2h-.2c-.6.2-1.1.4-1.3.4,0,0-.1,0-.2,0-.1,0-.3,0-.5,0-.6,0-2.6,0-4.1,1.3-.7.6-4.2,3.7-4.9,7.2-.5,3,.5,6.7,3.1,8,.2.6.4,1.3.6,2,.5,1.6,1.8,3.9,3.6,5.3l.5.4c.8.7,1.5,1.2,2.4,1.6-.5.6-1,1-1.3,1.4-.6.7-1.3,1.6-2.1,2.5-2.7,3-4.3,5-4.7,6.5-.3,1.3-.4,2.4,0,3.7-.6,1.1-.8,2.3-.7,3.6-4.2-2-7.2-3.5-8.4-4.4,0,0,0,0,0,0,0,0-.1,0-.2-.1-.6-.3-.8-.5-.9-.6-.2-.9-.8-1.7-1.6-2.4h2.9s0,0,.1,0c2.2-.1,3.6-.9,4.3-1.6.7-.6,1-1.6.7-2.5-.3-.9-1.2-1.5-2.1-1.5h-.2c-.7-1.8-2-2.8-3.5-3-.6,0-1.2,0-1.8,0s-.2,0-.3,0c-.7-1.4-2-2.3-3.7-2.3h-12.4c-1.7,0-3,.9-3.7,2.3,0,0-.2,0-.3,0-.6,0-1.2,0-1.8,0-1.5.1-2.8,1.2-3.5,3h-.1c-1,0-1.8.6-2.1,1.5-.3.9,0,1.9.7,2.5.9.7,2.5,1.6,5,1.6s.2,0,.3,0c.3,0,1.1,0,3.1,0s2.1,0,2.9,0c.4.4.9.7,1.5.7,1,0,2.6.6,4.5,1.5.3.2.7.4,1,.6.6.5,1.3.9,1.9,1.3,1.1.7,2.3,1.5,4,2.9.8.6,1.3,1.2,1.9,1.9,1.3,1.4,2.8,3,7.2,5.9,1.4.9,3.2,2,4.2,2.4,6.8,4,13.6,4.4,15.5,4.4,1.1,0,2-.7,2.2-1.8.4-1.8,1.3-3.4,2.2-5.1.3-.6.6-1.2.9-1.8.2-.5.5-1,.8-1.5,1.1-2.1,2.5-4.7,3.7-9.7.9-3.6-.3-7.2-1.3-9.3.8-.7,1.7-1.7,1.9-3.3v-.4c.3-2.1.8-5.3-1.6-7.9-.5-.6-1.1-.9-1.8-1.1.2-1.2,0-2.4-.7-3.6.6-1.7,0-3.8-1.4-4.6-.1,0-.3-.2-.4-.2-.2-3.8-2.8-5.6-3.7-6.1,0,0-.1,0-.2-.1-.7-.6-2.9-1.6-4.7-1.6h0Z"/>
  </g>
</svg>